<svg width="52" height="19" viewBox="0 0 52 19" fill="none" xmlns="http://www.w3.org/2000/svg">
<rect y="1.5" width="16" height="16" rx="4" fill="#1F79FF"/>
<path d="M11.4273 5.78208C11.5985 5.60924 11.8312 5.51122 12.0745 5.50942C12.3178 5.50763 12.5519 5.60222 12.7257 5.77251C12.8995 5.94281 12.9987 6.17496 13.0019 6.41824C13.005 6.66152 12.9117 6.89614 12.7423 7.07083L7.84231 13.1965C7.75813 13.2871 7.65655 13.3598 7.54364 13.4103C7.43072 13.4608 7.30879 13.4881 7.18512 13.4904C7.06145 13.4927 6.93857 13.4701 6.82383 13.4239C6.7091 13.3777 6.60485 13.3088 6.51731 13.2215L3.26856 9.97395C3.09592 9.80123 2.99896 9.567 2.99902 9.3228C2.99908 9.07859 3.09615 8.84441 3.26887 8.67177C3.44159 8.49913 3.67582 8.40217 3.92003 8.40223C4.16424 8.40229 4.39842 8.49936 4.57106 8.67208L7.14043 11.2421L11.4029 5.81083C11.4107 5.80095 11.419 5.79155 11.4279 5.7827L11.4273 5.78208Z" fill="white"/>
<path d="M37.3438 10.1406V11.5469H31.7344V16.375H30.0156V11.5469H24.4688V10.1406H37.3438ZM36.1562 3.0625V4.4375H31.9219C32.0234 5.98438 33.8828 7.46875 36.6719 7.82812L36.0469 9.1875C33.6406 8.85156 31.7656 7.75 30.9062 6.21875C30.0469 7.75 28.1719 8.85156 25.7969 9.1875L25.1406 7.82812C27.9141 7.46875 29.7734 5.98438 29.9062 4.4375H25.6562V3.0625H36.1562ZM44.4438 10.9844C47.3656 10.9844 49.1625 11.9688 49.1781 13.6719C49.1625 15.3906 47.3656 16.3906 44.4438 16.3906C41.4906 16.3906 39.6625 15.3906 39.6625 13.6719C39.6625 11.9688 41.4906 10.9844 44.4438 10.9844ZM44.4438 12.3438C42.5063 12.3438 41.3969 12.7969 41.3969 13.6719C41.3969 14.5469 42.5063 15.0156 44.4438 15.0156C46.3813 15.0156 47.4594 14.5469 47.4594 13.6719C47.4594 12.7969 46.3813 12.3438 44.4438 12.3438ZM49.0375 2.26562V5.64062H51.0063V7.09375H49.0375V10.6406H47.3031V2.26562H49.0375ZM40.1 3.15625V5.0625H43.3969V3.15625H45.1156V9.75H38.3813V3.15625H40.1ZM40.1 8.375H43.3969V6.42188H40.1V8.375Z" fill="#686E7A"/>
</svg>
