<svg width="16" height="16" viewBox="0 0 16 16" fill="none" xmlns="http://www.w3.org/2000/svg">
<path d="M9.04357 3.70971L9.04355 3.70973C9.03053 3.72274 9.03053 3.74383 9.04355 3.75684L9.04356 3.75685L12.3998 7.11307L13.2533 7.96662H12.0462H2.66712C2.64872 7.96662 2.63379 7.98155 2.63379 7.99995C2.63379 8.01836 2.64872 8.03329 2.66712 8.03329H12.0462H13.2533L12.3998 8.88684L9.04358 12.243C9.03052 12.256 9.03052 12.2772 9.04358 12.2903C9.0566 12.3032 9.07768 12.3032 9.09069 12.2902L9.04357 3.70971ZM9.04357 3.70971C9.05658 3.6967 9.07767 3.6967 9.09068 3.70971L9.09069 3.70972M9.04357 3.70971L9.09069 3.70972M9.09069 3.70972L13.3574 7.97633M9.09069 3.70972L13.3574 7.97633M13.3574 7.97633L13.3574 7.97639M13.3574 7.97633L13.3574 7.97639M13.3574 7.97639C13.3704 7.9894 13.3704 8.01051 13.3574 8.02352L13.3574 7.97639ZM13.3574 8.02357L9.09074 12.2902L13.3574 8.02357Z" fill="#09090B" stroke="#FAFAFA"/>
</svg>
