<svg width="16" height="16" viewBox="0 0 16 16" fill="none" xmlns="http://www.w3.org/2000/svg">
<g id="arrow-right">
<path id="Vector" d="M9.04357 3.70996L9.04355 3.70997C9.03053 3.72299 9.03053 3.74408 9.04355 3.75709L9.04356 3.7571L12.3998 7.11331L13.2533 7.96686H12.0462H2.66712C2.64872 7.96686 2.63379 7.98179 2.63379 8.0002C2.63379 8.01861 2.64872 8.03353 2.66712 8.03353H12.0462H13.2533L12.3998 8.88709L9.04358 12.2432C9.03052 12.2563 9.03052 12.2774 9.04358 12.2905C9.0566 12.3034 9.07768 12.3034 9.09069 12.2905L9.04357 3.70996ZM9.04357 3.70996C9.05658 3.69694 9.07767 3.69694 9.09068 3.70996L9.09069 3.70997M9.04357 3.70996L9.09069 3.70997M9.09069 3.70997L13.3574 7.97658M9.09069 3.70997L13.3574 7.97658M13.3574 7.97658L13.3574 7.97663M13.3574 7.97658L13.3574 7.97663M13.3574 7.97663C13.3704 7.98965 13.3704 8.01075 13.3574 8.02376L13.3574 7.97663ZM13.3574 8.02382L9.09074 12.2904L13.3574 8.02382Z" fill="#09090B" stroke="#FAFAFA"/>
</g>
</svg>
