<svg width="16" height="16" viewBox="0 0 16 16" fill="none" xmlns="http://www.w3.org/2000/svg">
<path d="M2.53333 10.1667C2.55171 10.1667 2.56667 10.1816 2.56667 10.2V11.8C2.56667 12.6656 3.26455 13.3667 4.12944 13.3667H11.8679C12.733 13.3667 13.4333 12.6654 13.4333 11.8V10.2C13.4333 10.1816 13.4483 10.1667 13.4667 10.1667C13.485 10.1667 13.5 10.1816 13.5 10.2V11.8C13.5 12.7021 12.7699 13.4333 11.8679 13.4333H4.12944C3.22738 13.4333 2.5 12.7021 2.5 11.8V10.2C2.5 10.1816 2.51495 10.1667 2.53333 10.1667Z" fill="#36363F" stroke="#36363F"/>
<path d="M5 7L8 10L11 7" stroke="#36363F" stroke-linecap="round" stroke-linejoin="round"/>
<path d="M8 10L8 3" stroke="#36363F" stroke-linecap="round" stroke-linejoin="round"/>
</svg>
