<svg width="24" height="24" viewBox="0 0 24 24" fill="none" xmlns="http://www.w3.org/2000/svg">
<mask id="mask0_13843_120573" style="mask-type:alpha" maskUnits="userSpaceOnUse" x="3" y="3" width="18" height="18">
<circle cx="12" cy="12" r="9" fill="white"/>
</mask>
<g mask="url(#mask0_13843_120573)">
<path d="M11.1043 3.80475C11.4718 3.06419 12.5282 3.06419 12.8957 3.80475L13.87 5.7676C14.0922 6.21537 14.6109 6.43025 15.0847 6.27078L17.1615 5.5717C17.9451 5.30795 18.6921 6.05491 18.4283 6.83847L17.7292 8.91529C17.5698 9.38905 17.7846 9.90781 18.2324 10.13L20.1952 11.1043C20.9358 11.4718 20.9358 12.5282 20.1952 12.8957L18.2324 13.87C17.7846 14.0922 17.5698 14.6109 17.7292 15.0847L18.4283 17.1615C18.6921 17.9451 17.9451 18.6921 17.1615 18.4283L15.0847 17.7292C14.6109 17.5698 14.0922 17.7846 13.87 18.2324L12.8957 20.1952C12.5282 20.9358 11.4718 20.9358 11.1043 20.1952L10.13 18.2324C9.90781 17.7846 9.38906 17.5698 8.91529 17.7292L6.83847 18.4283C6.05491 18.6921 5.30795 17.9451 5.5717 17.1615L6.27077 15.0847C6.43025 14.6109 6.21538 14.0922 5.7676 13.87L3.80475 12.8957C3.06419 12.5282 3.06419 11.4718 3.80475 11.1043L5.7676 10.13C6.21537 9.90781 6.43025 9.38906 6.27078 8.91529L5.5717 6.83847C5.30795 6.05491 6.05491 5.30795 6.83847 5.5717L8.91529 6.27077C9.38905 6.43025 9.90781 6.21538 10.13 5.7676L11.1043 3.80475Z" stroke="#93C637" stroke-width="1.5" stroke-linejoin="bevel"/>
</g>
<circle cx="12" cy="12" r="3.25" stroke="#93C637" stroke-width="1.5"/>
</svg>
